<svg width="24" height="24" viewBox="0 0 24 24" fill="none" xmlns="http://www.w3.org/2000/svg">
    <path fill-rule="evenodd" clip-rule="evenodd" d="M11.4714 7.52864C11.7318 7.78899 11.7318 8.2111 11.4714 8.47145L7.94282 12L11.4714 15.5286C11.7318 15.789 11.7318 16.2111 11.4714 16.4714C11.2111 16.7318 10.789 16.7318 10.5286 16.4714L6.52861 12.4714C6.26826 12.2111 6.26826 11.789 6.52861 11.5286L10.5286 7.52864C10.789 7.26829 11.2111 7.26829 11.4714 7.52864Z" fill="#657081"/>
    <path fill-rule="evenodd" clip-rule="evenodd" d="M17.4714 7.52864C17.7318 7.78899 17.7318 8.2111 17.4714 8.47145L13.9428 12L17.4714 15.5286C17.7318 15.789 17.7318 16.2111 17.4714 16.4714C17.2111 16.7318 16.789 16.7318 16.5286 16.4714L12.5286 12.4714C12.2683 12.2111 12.2683 11.789 12.5286 11.5286L16.5286 7.52864C16.789 7.26829 17.2111 7.26829 17.4714 7.52864Z" fill="#657081"/>
</svg>
