<svg width="20" height="20" viewBox="0 0 20 20" fill="none" xmlns="http://www.w3.org/2000/svg">
<path d="M16.4781 8.24176V8.24175H16.475H13.1083C12.4831 8.24175 12.1731 8.12719 12.0137 7.98607C11.8699 7.85888 11.75 7.6201 11.75 7.09175V3.31675C11.75 2.7936 11.8695 2.55367 12.0144 2.4249C12.1744 2.28273 12.4849 2.16675 13.1083 2.16675H16.475C17.0985 2.16675 17.4089 2.28273 17.5689 2.4249C17.7139 2.55367 17.8333 2.7936 17.8333 3.31675V7.10008C17.8333 7.6236 17.7137 7.86276 17.5697 7.99024C17.4107 8.13089 17.1013 8.24568 16.4781 8.24176Z" fill="#0B9F57" stroke="#0B9F57"/>
<path d="M17.8333 13.1083V16.475C17.8333 17.0874 17.7071 17.3879 17.5475 17.5475C17.3879 17.7071 17.0874 17.8333 16.475 17.8333H13.1083C12.4959 17.8333 12.1955 17.7071 12.0358 17.5475C11.8762 17.3879 11.75 17.0874 11.75 16.475V13.1083C11.75 12.4959 11.8762 12.1955 12.0358 12.0358C12.1955 11.8762 12.4959 11.75 13.1083 11.75H16.475C17.0874 11.75 17.3879 11.8762 17.5475 12.0358C17.7071 12.1955 17.8333 12.4959 17.8333 13.1083Z" fill="#0B9F57" stroke="#0B9F57"/>
<path d="M6.89489 8.24176V8.24175H6.89175H3.52508C2.89983 8.24175 2.58986 8.12719 2.43041 7.98607C2.28669 7.85888 2.16675 7.6201 2.16675 7.09175V3.31675C2.16675 2.7936 2.28621 2.55367 2.43114 2.4249C2.59115 2.28273 2.90161 2.16675 3.52508 2.16675H6.89175C7.51522 2.16675 7.82568 2.28273 7.98569 2.4249C8.13062 2.55367 8.25008 2.7936 8.25008 3.31675V7.10008C8.25008 7.6236 8.13046 7.86276 7.98642 7.99024C7.8275 8.13089 7.51808 8.24568 6.89489 8.24176Z" fill="#0B9F57" stroke="#0B9F57"/>
<path d="M8.25008 13.1083V16.475C8.25008 17.0874 8.12387 17.3879 7.96424 17.5475C7.8046 17.7071 7.50417 17.8333 6.89175 17.8333H3.52508C2.91266 17.8333 2.61223 17.7071 2.45259 17.5475C2.29296 17.3879 2.16675 17.0874 2.16675 16.475V13.1083C2.16675 12.4959 2.29296 12.1955 2.45259 12.0358C2.61223 11.8762 2.91266 11.75 3.52508 11.75H6.89175C7.50417 11.75 7.8046 11.8762 7.96424 12.0358C8.12387 12.1955 8.25008 12.4959 8.25008 13.1083Z" fill="#0B9F57" stroke="#0B9F57"/>
</svg>
