<svg width="20" height="20" viewBox="0 0 20 20" fill="none" xmlns="http://www.w3.org/2000/svg">
<path d="M2.94863 5.76965L2.94898 5.76937L7.44029 2.26965C7.4404 2.26957 7.4405 2.26949 7.4406 2.26941C7.44062 2.2694 7.44063 2.26938 7.44065 2.26937C8.61675 1.35492 10.5336 1.31012 11.7543 2.16746L11.7547 2.16779L16.9047 5.77613L16.9056 5.77674C17.3205 6.06614 17.7138 6.54094 18.0037 7.09602C18.2936 7.65113 18.4583 8.24473 18.4583 8.74997V14.8166C18.4583 16.8161 16.8315 18.45 14.825 18.45H5.17499C3.16911 18.45 1.54166 16.8168 1.54166 14.8083V8.6333C1.54166 8.16117 1.69012 7.59723 1.95296 7.06204C2.21571 6.52702 2.57235 6.06231 2.94863 5.76965ZM3.101 5.9639L3.10099 5.9639L3.09868 5.96572C2.72619 6.25952 2.40569 6.7095 2.17956 7.16864C1.95375 7.62715 1.79166 8.15651 1.79166 8.6333V14.8083C1.79166 16.6742 3.3053 18.2 5.17499 18.2H14.825C16.6928 18.2 18.2083 16.6844 18.2083 14.8166V8.74997C18.2083 8.24461 18.0316 7.68716 17.7818 7.20831C17.5328 6.73088 17.1774 6.26702 16.7597 5.98059L11.6122 2.37402C11.0329 1.96748 10.2934 1.78994 9.58602 1.8053C8.87898 1.82064 8.14923 2.02994 7.59266 2.4639C7.59262 2.46394 7.59257 2.46398 7.59252 2.46402L3.101 5.9639Z" fill="#292D32" stroke="#989FAB"/>
<path d="M11.25 15.125H8.75C7.30114 15.125 6.125 13.9489 6.125 12.5V10C6.125 8.55114 7.30114 7.375 8.75 7.375H11.25C12.6989 7.375 13.875 8.55114 13.875 10V12.5C13.875 13.9489 12.6989 15.125 11.25 15.125ZM8.75 7.625C7.44052 7.625 6.375 8.69052 6.375 10V12.5C6.375 13.8095 7.44052 14.875 8.75 14.875H11.25C12.5595 14.875 13.625 13.8095 13.625 12.5V10C13.625 8.69052 12.5595 7.625 11.25 7.625H8.75Z" fill="#292D32" stroke="#989FAB"/>
<path d="M10 15.125C9.96985 15.125 9.93857 15.1127 9.91293 15.0871C9.88728 15.0614 9.875 15.0301 9.875 15V7.5C9.875 7.46985 9.88728 7.43857 9.91293 7.41293C9.93857 7.38728 9.96985 7.375 10 7.375C10.0301 7.375 10.0614 7.38728 10.0871 7.41293C10.1127 7.43857 10.125 7.46985 10.125 7.5V15C10.125 15.0301 10.1127 15.0614 10.0871 15.0871C10.0614 15.1127 10.0301 15.125 10 15.125Z" fill="#292D32" stroke="#989FAB"/>
<path d="M13.75 11.375H6.25C6.21985 11.375 6.18857 11.3627 6.16293 11.3371C6.13728 11.3114 6.125 11.2801 6.125 11.25C6.125 11.2199 6.13728 11.1886 6.16293 11.1629C6.18857 11.1373 6.21985 11.125 6.25 11.125H13.75C13.7801 11.125 13.8114 11.1373 13.8371 11.1629C13.8627 11.1886 13.875 11.2199 13.875 11.25C13.875 11.2801 13.8627 11.3114 13.8371 11.3371C13.8114 11.3627 13.7801 11.375 13.75 11.375Z" fill="#292D32" stroke="#989FAB"/>
</svg>
