<svg width="21" height="21" viewBox="0 0 21 21" fill="none" xmlns="http://www.w3.org/2000/svg">
<path fill-rule="evenodd" clip-rule="evenodd" d="M10.3055 3.44006C6.51378 3.44006 3.44 6.51384 3.44 10.3055C3.44 14.0972 6.51378 17.171 10.3055 17.171C14.0972 17.171 17.1709 14.0972 17.1709 10.3055C17.1709 6.51384 14.0972 3.44006 10.3055 3.44006ZM2.19 10.3055C2.19 5.82348 5.82342 2.19006 10.3055 2.19006C14.7875 2.19006 18.4209 5.82348 18.4209 10.3055C18.4209 14.7876 14.7875 18.421 10.3055 18.421C5.82342 18.421 2.19 14.7876 2.19 10.3055Z" fill="currentColor"/>
<path fill-rule="evenodd" clip-rule="evenodd" d="M15.0727 15.4629C15.3165 15.2185 15.7122 15.218 15.9566 15.4618L18.8933 18.3909C19.1377 18.6346 19.1382 19.0303 18.8944 19.2747C18.6507 19.5191 18.2549 19.5196 18.0106 19.2759L15.0739 16.3468C14.8295 16.1031 14.829 15.7073 15.0727 15.4629Z" fill="currentColor"/>
</svg>
