<svg width="20" height="20" viewBox="0 0 20 20" fill="none" xmlns="http://www.w3.org/2000/svg">
<path d="M6.66675 4.29175C6.6366 4.29175 6.60532 4.27946 6.57968 4.25382C6.55403 4.22818 6.54175 4.1969 6.54175 4.16675V1.66675C6.54175 1.6366 6.55403 1.60532 6.57968 1.57968C6.60532 1.55403 6.6366 1.54175 6.66675 1.54175C6.6969 1.54175 6.72818 1.55403 6.75382 1.57968C6.77946 1.60532 6.79175 1.6366 6.79175 1.66675V4.16675C6.79175 4.1969 6.77946 4.22818 6.75382 4.25382C6.72818 4.27946 6.6969 4.29175 6.66675 4.29175Z" fill="#989FAB" stroke="#989FAB"/>
<path d="M13.3333 4.29175C13.3031 4.29175 13.2718 4.27946 13.2462 4.25382C13.2205 4.22818 13.2083 4.1969 13.2083 4.16675V1.66675C13.2083 1.6366 13.2205 1.60532 13.2462 1.57968C13.2718 1.55403 13.3031 1.54175 13.3333 1.54175C13.3634 1.54175 13.3947 1.55403 13.4203 1.57968C13.446 1.60532 13.4583 1.6366 13.4583 1.66675V4.16675C13.4583 4.1969 13.446 4.22818 13.4203 4.25382C13.3947 4.27946 13.3634 4.29175 13.3333 4.29175Z" fill="#989FAB" stroke="#989FAB"/>
<path d="M13.3333 18.4584H6.66667C5.24074 18.4584 4.18404 18.0499 3.48376 17.3497C2.78348 16.6494 2.375 15.5927 2.375 14.1667V7.08342C2.375 5.65749 2.78348 4.60079 3.48376 3.90051C4.18404 3.20023 5.24074 2.79175 6.66667 2.79175H13.3333C14.7593 2.79175 15.816 3.20023 16.5162 3.90051C17.2165 4.60079 17.625 5.65749 17.625 7.08342V14.1667C17.625 15.5927 17.2165 16.6494 16.5162 17.3497C15.816 18.0499 14.7593 18.4584 13.3333 18.4584ZM6.66667 3.04175C5.40151 3.04175 4.36464 3.34917 3.64853 4.06528C2.93242 4.78139 2.625 5.81826 2.625 7.08342V14.1667C2.625 15.4319 2.93242 16.4688 3.64853 17.1849C4.36464 17.901 5.40151 18.2084 6.66667 18.2084H13.3333C14.5985 18.2084 15.6354 17.901 16.3515 17.1849C17.0676 16.4688 17.375 15.4319 17.375 14.1667V7.08342C17.375 5.81826 17.0676 4.78139 16.3515 4.06528C15.6354 3.34917 14.5985 3.04175 13.3333 3.04175H6.66667Z" fill="#989FAB" stroke="#989FAB"/>
<path d="M13.3334 9.29175H6.66675C6.6366 9.29175 6.60532 9.27946 6.57968 9.25382C6.55403 9.22818 6.54175 9.1969 6.54175 9.16675C6.54175 9.1366 6.55403 9.10532 6.57968 9.07968C6.60532 9.05403 6.6366 9.04175 6.66675 9.04175H13.3334C13.3636 9.04175 13.3948 9.05403 13.4205 9.07968C13.4461 9.10532 13.4584 9.1366 13.4584 9.16675C13.4584 9.1969 13.4461 9.22818 13.4205 9.25382C13.3948 9.27946 13.3636 9.29175 13.3334 9.29175Z" fill="#989FAB" stroke="#989FAB"/>
<path d="M10.0001 13.9583H6.66675C6.32508 13.9583 6.04175 13.6749 6.04175 13.3333C6.04175 12.9916 6.32508 12.7083 6.66675 12.7083H10.0001C10.3417 12.7083 10.6251 12.9916 10.6251 13.3333C10.6251 13.6749 10.3417 13.9583 10.0001 13.9583Z" fill="#989FAB"/>
</svg>
