<svg width="20" height="20" viewBox="0 0 20 20" fill="none" xmlns="http://www.w3.org/2000/svg">
<path d="M6.79166 1.66663V2.41663H6.66666C6.624 2.41663 6.58236 2.41741 6.54166 2.41884V1.66663C6.54166 1.63648 6.55394 1.6052 6.57958 1.57955C6.60523 1.55391 6.63651 1.54163 6.66666 1.54163C6.6968 1.54163 6.72808 1.55391 6.75373 1.57955C6.77937 1.6052 6.79166 1.63648 6.79166 1.66663Z" fill="#0B9F57" stroke="#0B9F57"/>
<path d="M13.4583 1.66663V2.41884C13.4176 2.41741 13.376 2.41663 13.3333 2.41663H13.2083V1.66663C13.2083 1.63648 13.2206 1.6052 13.2463 1.57955C13.2719 1.55391 13.3032 1.54163 13.3333 1.54163C13.3635 1.54163 13.3948 1.55391 13.4204 1.57955C13.4461 1.6052 13.4583 1.63648 13.4583 1.66663Z" fill="#0B9F57" stroke="#0B9F57"/>
<path d="M14.4583 4.16663V3.54342C15.2865 3.71152 15.8684 4.07277 16.2628 4.55875C16.746 5.15424 17 6.00183 17 7.08329V14.1666C17 15.34 16.7066 16.2414 16.144 16.8472C15.5877 17.4464 14.6964 17.8333 13.3333 17.8333H6.66667C5.30363 17.8333 4.41232 17.4464 3.85598 16.8472C3.29341 16.2414 3 15.34 3 14.1666V7.08329C3 6.00183 3.25404 5.15424 3.73722 4.55875C4.13155 4.07277 4.7135 3.71152 5.54167 3.54342V4.16663C5.54167 4.78443 6.04886 5.29163 6.66667 5.29163C7.28448 5.29163 7.79167 4.78443 7.79167 4.16663V3.41663H12.2083V4.16663C12.2083 4.78444 12.7155 5.29163 13.3333 5.29163C13.9511 5.29163 14.4583 4.78443 14.4583 4.16663ZM6.66667 14.4583H10C10.6178 14.4583 11.125 13.9511 11.125 13.3333C11.125 12.7155 10.6178 12.2083 10 12.2083H6.66667C6.04886 12.2083 5.54167 12.7155 5.54167 13.3333C5.54167 13.9511 6.04886 14.4583 6.66667 14.4583ZM6.66667 10.2916H13.3333C13.9511 10.2916 14.4583 9.78444 14.4583 9.16663C14.4583 8.54882 13.9511 8.04163 13.3333 8.04163H6.66667C6.04886 8.04163 5.54167 8.54882 5.54167 9.16663C5.54167 9.78444 6.04886 10.2916 6.66667 10.2916Z" fill="#0B9F57" stroke="#0B9F57"/>
</svg>
