<svg width="150" height="28" viewBox="0 0 150 28" fill="none" xmlns="http://www.w3.org/2000/svg">
<mask id="mask0_217_3103" style="mask-type:luminance" maskUnits="userSpaceOnUse" x="0" y="0" width="28" height="28">
<path d="M10.3848 10.4229C10.6873 9.29415 11.8474 8.62426 12.9762 8.92676C14.7097 9.39119 13.3461 10.6264 17.4302 11.7208C20.7993 12.6236 20.9978 11.0762 22.5664 11.4965C23.6951 11.799 24.365 12.9591 24.0625 14.0879C23.6422 15.6567 22.2026 15.0547 21.3001 18.4239C20.3937 21.8069 21.9001 22.1587 21.4931 23.6782C21.1906 24.8069 20.0305 25.4768 18.9017 25.1743C17.3329 24.754 17.9349 23.3147 14.5658 22.4119C10.4816 21.3175 11.0453 23.0693 9.31152 22.6048C8.18276 22.3023 7.51288 21.1422 7.81538 20.0135C8.11788 18.8847 9.27797 18.2148 10.4067 18.5173C12.1402 18.9817 10.7769 20.2173 14.8608 21.3114C17.0332 21.8936 17.8348 21.6408 18.3948 21.3616C18.9347 20.9903 19.589 20.4077 20.1996 18.1294C20.7907 15.9229 20.5209 15.1307 20.2365 14.569C19.8921 14.0421 19.3403 13.4127 17.1355 12.8222C13.0513 11.7278 13.615 13.4796 11.8812 13.0151C10.7525 12.7126 10.0826 11.5525 10.3851 10.4237M28 14.0008C27.9997 6.268 21.7318 0 13.9999 0C6.26794 0 0 6.268 0 14C0 21.732 6.26794 28 13.9999 28C21.7318 28 27.9997 21.732 27.9997 14L28 14.0008ZM14.0001 27.0667C6.78394 27.0667 0.934395 21.2168 0.934395 14.0008C0.934395 6.78484 6.78394 0.934128 13.9999 0.934128C21.2158 0.934128 27.0656 6.78401 27.0656 14C27.0656 21.216 21.2158 27.0659 13.9999 27.0659L14.0001 27.0667ZM5.43364 16.5043C4.30488 16.2018 3.63499 15.0417 3.93749 13.9129C4.38722 12.2338 5.85342 12.7356 6.73153 9.45885C7.60521 6.19841 6.05139 6.02289 6.50722 4.32266C6.80972 3.19389 7.96982 2.524 9.09858 2.82651C10.7774 3.27652 10.2759 4.74273 13.5523 5.62057C17.5727 6.69777 16.8979 4.9163 18.6885 5.39626C19.8172 5.69876 20.4871 6.85887 20.1846 7.98764C19.8821 9.11641 18.722 9.7863 17.5933 9.4838C15.8024 9.00384 17.2783 7.79854 13.2573 6.72106C10.9793 6.11079 10.1472 6.38584 9.55579 6.66783C9.03342 7.01331 8.414 7.58088 7.83174 9.75386C7.23034 11.9987 7.48876 12.8393 7.76603 13.4291C8.13812 13.9645 8.73619 14.6092 10.9823 15.2108C15.0027 16.288 14.3279 14.5066 16.1185 14.9865C17.2472 15.289 17.9171 16.4491 17.6146 17.5779C17.3121 18.7067 16.152 19.3766 15.0233 19.0741C13.2324 18.5941 14.7083 17.3888 10.6873 16.3116C7.41057 15.4335 7.11222 16.9546 5.43308 16.5046L5.43364 16.5043Z" fill="white"/>
</mask>
<g mask="url(#mask0_217_3103)">
<path d="M27.9997 0H0V28H27.9997V0Z" fill="url(#paint0_linear_217_3103)"/>
</g>
<path fill-rule="evenodd" clip-rule="evenodd" d="M41.4786 13.1909H38.0545V9.62784H41.3301C42.1469 9.62784 42.7532 9.78259 43.1517 10.0921C43.5475 10.4011 43.7465 10.8341 43.7465 11.3909C43.7465 11.9847 43.5446 12.4331 43.1432 12.736C42.7388 13.039 42.1859 13.1905 41.4786 13.1905M40.8753 7.71609H38.0545V4.24604H41.0242C41.698 4.24604 42.2084 4.39144 42.5623 4.68505C42.9132 4.97586 43.0901 5.3901 43.0901 5.92496C43.0901 6.53416 42.8882 6.9858 42.4868 7.27661C42.0824 7.57022 41.5465 7.71562 40.8757 7.71562L40.8753 7.71609ZM55.6865 6.46356C55.6865 7.13494 55.4676 7.6698 55.0271 8.06581C54.5892 8.46461 53.9969 8.66285 53.2531 8.66285H50.2134V4.28344H53.2361C54.0135 4.28344 54.6168 4.46625 55.0437 4.8342C55.4731 5.19888 55.6865 5.74356 55.6865 6.46403V6.46356ZM58.1619 15.2126L54.9792 10.2955C55.3946 10.1716 55.7735 9.99533 56.1159 9.7667C56.4583 9.53761 56.7532 9.25943 57.0001 8.93168C57.2471 8.60394 57.441 8.22663 57.581 7.79978C57.7215 7.37292 57.7915 6.88761 57.7915 6.3434C57.7915 5.71223 57.6905 5.14043 57.4885 4.62708C57.2865 4.11373 56.9972 3.68079 56.6212 3.32826C56.2453 2.97574 55.7849 2.70364 55.2405 2.51195C54.6962 2.32026 54.0869 2.22441 53.4131 2.22441H48.1589V15.2135H50.2134V10.6859H52.8152L55.72 15.2135H58.1619V15.2126ZM66.4308 2.13044H64.5108L59.3236 15.2126H61.4456C63.6325 9.55584 63.1415 10.7588 65.437 4.85851C67.3714 9.79054 67.6892 10.6517 69.428 15.2126H71.6175L66.4308 2.13044ZM81.8568 11.2044L75.5554 2.22301H73.6384V15.2121H75.6929V5.97124L82.1793 15.2121H83.9109V2.22301H81.8564V11.2044H81.8568ZM95.4303 8.73625C95.4303 9.38238 95.3319 9.97616 95.1354 10.5148C94.939 11.0557 94.6611 11.5228 94.3076 11.9127C93.9542 12.3054 93.5218 12.6084 93.0165 12.8281C92.5086 13.0446 91.9468 13.1531 91.3269 13.1531H88.9974V4.28297H91.3269C91.9472 4.28297 92.5086 4.39425 93.0165 4.61726C93.5218 4.84308 93.9537 5.15212 94.3076 5.5514C94.6611 5.9474 94.939 6.41727 95.1354 6.95868C95.3319 7.49681 95.4303 8.09058 95.4303 8.73719V8.73625ZM97.6028 8.69884C97.6028 7.78341 97.4513 6.9297 97.1479 6.13816C96.8445 5.34662 96.4156 4.65981 95.8597 4.07819C95.3039 3.49705 94.6415 3.04213 93.8727 2.71439C93.1039 2.38665 92.2586 2.22255 91.3383 2.22255H86.9429V15.2116H91.3383C92.2591 15.2116 93.1039 15.0447 93.8727 14.7109C94.642 14.3766 95.3043 13.9189 95.8597 13.3377C96.4156 12.7561 96.845 12.0665 97.1479 11.2684C97.4513 10.4703 97.6028 9.61381 97.6028 8.69838V8.69884ZM147.501 9.73771V15.2116H149.556V2.22255H147.501V7.62258H141.843V2.22255H139.788V15.2116H141.843V9.73771H147.501ZM137.616 13.1334L136.285 11.649C135.78 12.1689 135.27 12.5799 134.753 12.8828C134.236 13.1858 133.619 13.3377 132.9 13.3377C132.339 13.3377 131.82 13.2171 131.343 12.9759C130.865 12.7346 130.453 12.4036 130.105 11.9833C129.757 11.5625 129.488 11.0711 129.297 10.5082C129.106 9.9453 129.011 9.34217 129.011 8.69884C129.011 8.05552 129.106 7.45567 129.297 6.89883C129.488 6.34247 129.757 5.8567 130.105 5.44246C130.453 5.02823 130.866 4.70002 131.343 4.45924C131.82 4.21799 132.339 4.09736 132.9 4.09736C133.574 4.09736 134.175 4.24604 134.702 4.54246C135.23 4.83934 135.73 5.22927 136.201 5.7113L137.532 4.02256C137.251 3.72567 136.953 3.45356 136.639 3.20624C136.325 2.95891 135.982 2.74525 135.612 2.56618C135.242 2.38712 134.835 2.24779 134.391 2.14867C133.947 2.04956 133.456 2 132.917 2C132.019 2 131.2 2.17626 130.458 2.52925C129.718 2.88177 129.078 3.36426 128.539 3.97627C128 4.58874 127.582 5.30314 127.284 6.11945C126.987 6.93577 126.838 7.80819 126.838 8.73578C126.838 9.66337 126.989 10.554 127.293 11.3708C127.596 12.1871 128.014 12.8954 128.547 13.4958C129.081 14.0956 129.712 14.5688 130.442 14.9152C131.172 15.2616 131.969 15.4346 132.833 15.4346C133.383 15.4346 133.886 15.3823 134.34 15.2771C134.795 15.1719 135.213 15.0171 135.595 14.8133C135.977 14.609 136.333 14.3677 136.664 14.0895C136.996 13.8113 137.313 13.4925 137.616 13.1339V13.1334ZM124.8 2.22208H116.077V15.2111H124.884V13.1517H118.131V9.68161H124.042V7.62165H118.131V4.28157H124.8V2.22208ZM110.149 4.33768H113.887V2.22208H104.322V4.33768H108.061V15.2116H110.149V4.33768ZM139.211 21.4275H136.193V25.9215H139.24V25.2089H136.904V24.0083H138.949V23.2958H136.904V22.14H139.211V21.4275H139.211ZM132.263 22.8946C132.263 23.127 132.187 23.3121 132.034 23.4491C131.883 23.587 131.678 23.6553 131.421 23.6553H130.369V22.14H131.415C131.684 22.14 131.893 22.2031 132.04 22.3303C132.189 22.4565 132.263 22.645 132.263 22.8942V22.8946ZM133.119 25.9219L132.018 24.2206C132.161 24.1775 132.292 24.1168 132.411 24.0378C132.529 23.9587 132.631 23.8624 132.717 23.7488C132.803 23.6357 132.869 23.5048 132.918 23.3575C132.967 23.2097 132.991 23.0419 132.991 22.8535C132.991 22.6351 132.956 22.4374 132.886 22.2597C132.816 22.0821 132.716 21.932 132.586 21.8104C132.456 21.6884 132.297 21.5944 132.108 21.528C131.92 21.4616 131.709 21.4284 131.476 21.4284H129.658V25.9224H130.369V24.3557H131.269L132.274 25.9224H133.119L133.119 25.9219ZM126.45 21.428H123.432V25.9219H126.479V25.2094H124.143V24.0088H126.188V23.2962H124.143V22.1405H126.45V21.428H126.45ZM119.35 24.0279V25.9219H120.061V21.428H119.35V23.2962H117.392V21.428H116.682V25.9219H117.392V24.0279H119.35ZM110.852 24.5352L108.672 21.428H108.008V25.9219H108.719V22.7249L110.963 25.9219H111.562V21.428H110.852V24.5352ZM103.192 21.3957H102.528L100.733 25.9219H101.467C102.242 23.9185 102.042 24.4122 102.848 22.3397C103.54 24.1051 103.598 24.2659 104.229 25.9219H104.987L103.192 21.3957ZM97.8281 25.2992V23.4117H96.0918V24.0985H97.1348V24.9438C97.0104 25.0476 96.864 25.1299 96.6948 25.193C96.5259 25.2552 96.3443 25.2861 96.1499 25.2861C95.9403 25.2861 95.7507 25.2454 95.5818 25.164C95.4129 25.0827 95.267 24.9691 95.1448 24.826C95.0221 24.6825 94.9279 24.5128 94.8618 24.3145C94.796 24.1177 94.7629 23.9026 94.7629 23.6717C94.7629 23.4533 94.7968 23.2467 94.8647 23.0545C94.9326 22.861 95.026 22.6917 95.1443 22.5463C95.2627 22.4004 95.4023 22.285 95.5636 22.2017C95.7248 22.1181 95.8988 22.0764 96.085 22.0764C96.2132 22.0764 96.3307 22.0881 96.4376 22.112C96.5446 22.1353 96.6426 22.1676 96.7321 22.2083C96.8212 22.249 96.9069 22.299 96.9884 22.3593C97.0698 22.4191 97.1496 22.4855 97.2273 22.558L97.6817 21.961C97.5769 21.8628 97.4691 21.7758 97.3584 21.701C97.2476 21.6262 97.1301 21.5631 97.0058 21.5117C96.8815 21.4602 96.7465 21.421 96.6006 21.3929C96.455 21.3653 96.2929 21.3513 96.1143 21.3513C95.8075 21.3513 95.5249 21.4135 95.2665 21.5374C95.0081 21.6617 94.7858 21.8296 94.5995 22.0414C94.4128 22.2532 94.2682 22.5005 94.1655 22.7829C94.0624 23.0653 94.011 23.365 94.011 23.682C94.011 23.999 94.0615 24.3173 94.1625 24.6002C94.2635 24.8826 94.4065 25.1276 94.5906 25.3352C94.7752 25.5428 94.9975 25.7055 95.2581 25.8233C95.5182 25.9411 95.8075 26 96.1262 26C96.3048 26 96.4758 25.9818 96.6387 25.9453C96.8017 25.9088 96.9544 25.8588 97.0961 25.7943C97.2379 25.7302 97.3698 25.655 97.492 25.5694C97.6142 25.4838 97.7262 25.3941 97.8272 25.2996L97.8281 25.2992ZM90.2504 23.6815C90.2504 23.8998 90.2165 24.1065 90.1486 24.301C90.0807 24.4959 89.9865 24.6647 89.866 24.8083C89.7455 24.9518 89.6008 25.0649 89.4319 25.1486C89.263 25.2318 89.0776 25.2739 88.8752 25.2739C88.6728 25.2739 88.487 25.2309 88.316 25.1453C88.145 25.0598 87.9986 24.9443 87.876 24.7989C87.7538 24.653 87.6587 24.4833 87.5904 24.2884C87.5225 24.0934 87.4886 23.8872 87.4886 23.6689C87.4886 23.4505 87.5225 23.2439 87.5904 23.0494C87.6583 22.8549 87.7525 22.6856 87.873 22.5426C87.9935 22.399 88.1382 22.2859 88.3071 22.2022C88.476 22.1185 88.6614 22.0769 88.8633 22.0769C89.0653 22.0769 89.2516 22.1199 89.4226 22.2055C89.5936 22.291 89.74 22.4065 89.8626 22.5524C89.9852 22.6978 90.0803 22.868 90.1481 23.0629C90.216 23.2579 90.25 23.4641 90.25 23.6824L90.2504 23.6815ZM91.0019 23.6684C91.0019 23.3519 90.9497 23.0522 90.8444 22.7698C90.7396 22.4874 90.5941 22.2415 90.4074 22.0316C90.2211 21.8221 89.9975 21.6561 89.7374 21.5341C89.4773 21.4121 89.1896 21.3513 88.8752 21.3513C88.5608 21.3513 88.2731 21.4135 88.013 21.5374C87.7529 21.6617 87.5272 21.8296 87.3371 22.0414C87.1466 22.2532 86.9994 22.5005 86.8941 22.7829C86.7893 23.0653 86.7367 23.365 86.7367 23.682C86.7367 23.999 86.7893 24.2982 86.8941 24.5806C86.999 24.863 87.1449 25.1089 87.3312 25.3188C87.5179 25.5283 87.7411 25.6942 88.0012 25.8163C88.2613 25.9383 88.5489 25.9991 88.8633 25.9991C89.1778 25.9991 89.4654 25.9369 89.7255 25.813C89.9856 25.6886 90.2109 25.5208 90.4015 25.309C90.5915 25.0972 90.7392 24.8499 90.8444 24.5675C90.9492 24.2851 91.0019 23.9854 91.0019 23.6684ZM81.2216 25.9219H84.0768V25.2094H81.9328V21.428H81.2216V25.9219ZM75.7706 22.6029C75.7706 22.4533 75.8287 22.3256 75.9454 22.2209C76.0621 22.1162 76.225 22.0638 76.4346 22.0638C76.6213 22.0638 76.8054 22.1036 76.9883 22.1826C77.1708 22.2616 77.3553 22.3761 77.542 22.5257L77.9265 21.9287C77.7169 21.745 77.4924 21.6047 77.2535 21.5084C77.0146 21.4121 76.7456 21.3639 76.4465 21.3639C76.2445 21.3639 76.0582 21.3952 75.8881 21.457C75.7171 21.5191 75.5716 21.608 75.4502 21.7235C75.3289 21.8389 75.2338 21.9769 75.1638 22.1372C75.0946 22.2976 75.0598 22.4767 75.0598 22.673C75.0598 22.8829 75.09 23.0606 75.1502 23.206C75.2105 23.3519 75.2987 23.4758 75.4133 23.5786C75.5279 23.6815 75.6704 23.767 75.8397 23.8353C76.0099 23.9036 76.2029 23.9658 76.4214 24.0214C76.6115 24.0728 76.766 24.1219 76.8856 24.1691C77.004 24.2159 77.0974 24.2664 77.1665 24.3201C77.2344 24.3734 77.2811 24.4324 77.3065 24.4964C77.3316 24.5605 77.3443 24.6334 77.3443 24.7147C77.3443 24.8901 77.2794 25.0294 77.1491 25.1323C77.0189 25.2351 76.8432 25.2865 76.6217 25.2865C76.3654 25.2865 76.1363 25.2365 75.9343 25.1355C75.7324 25.035 75.5325 24.8905 75.334 24.7021L74.9029 25.2669C75.1477 25.511 75.4137 25.6919 75.701 25.8092C75.9887 25.9271 76.2895 25.986 76.6043 25.986C76.8177 25.986 77.0142 25.9561 77.1928 25.8962C77.3706 25.8364 77.5238 25.7485 77.6502 25.633C77.7775 25.5175 77.8764 25.3763 77.9485 25.2094C78.0194 25.0425 78.0554 24.8522 78.0554 24.6381C78.0554 24.4497 78.0274 24.286 77.971 24.1467C77.9146 24.0078 77.831 23.8858 77.7224 23.7806C77.6137 23.6759 77.4758 23.587 77.3104 23.5141C77.1453 23.4412 76.9552 23.3748 76.7414 23.3149C76.5462 23.2635 76.3858 23.2144 76.2585 23.1672C76.1321 23.1205 76.0332 23.069 75.9602 23.0134C75.8885 22.9577 75.8389 22.8979 75.8117 22.8334C75.7846 22.7693 75.771 22.6922 75.771 22.6019L75.7706 22.6029ZM69.4921 22.8951C69.4921 23.1275 69.4162 23.3126 69.2638 23.4496C69.1124 23.5875 68.9074 23.6558 68.6503 23.6558H67.5984V22.1405H68.6444C68.9134 22.1405 69.1221 22.2036 69.2698 22.3308C69.4183 22.457 69.4921 22.6454 69.4921 22.8946V22.8951ZM70.3484 25.9224L69.2473 24.221C69.3911 24.178 69.5218 24.1172 69.6406 24.0382C69.759 23.9592 69.8613 23.8629 69.9465 23.7493C70.0318 23.6361 70.0989 23.5052 70.1477 23.358C70.1965 23.2102 70.2206 23.0424 70.2206 22.854C70.2206 22.6356 70.1859 22.4378 70.1158 22.2602C70.0458 22.0825 69.9461 21.9324 69.8159 21.8109C69.6856 21.6889 69.5265 21.5949 69.3381 21.5285C69.1497 21.4621 68.9388 21.4289 68.7059 21.4289H66.8882V25.9229H67.5989V24.3561H68.4988L69.504 25.9229H70.3488L70.3484 25.9224ZM63.5807 21.4284H62.87V24.0158C62.87 24.4309 62.7779 24.7433 62.5942 24.9532C62.4105 25.1631 62.1593 25.2678 61.8385 25.2678C61.5177 25.2678 61.2606 25.1584 61.0773 24.9406C60.894 24.7222 60.8015 24.4034 60.8015 23.984V21.4289H60.0908V24.0162C60.0908 24.3417 60.1315 24.6273 60.213 24.8732C60.2945 25.1192 60.4111 25.3258 60.5626 25.4927C60.7141 25.6596 60.8965 25.7849 61.1104 25.8682C61.3238 25.9514 61.5627 25.9935 61.827 25.9935C62.0914 25.9935 62.3371 25.9514 62.5526 25.8682C62.7681 25.7849 62.9519 25.6582 63.1034 25.4895C63.2548 25.3207 63.3724 25.1098 63.4559 24.8573C63.5395 24.6044 63.5811 24.3117 63.5811 23.9779V21.4289L63.5807 21.4284ZM56.2126 23.682C56.2126 23.9003 56.1787 24.107 56.1108 24.3014C56.0429 24.4964 55.9487 24.6652 55.8282 24.8087C55.7077 24.9523 55.563 25.0654 55.3941 25.1491C55.2253 25.2323 55.0399 25.2744 54.8375 25.2744C54.6351 25.2744 54.4492 25.2314 54.2782 25.1458C54.1072 25.0603 53.9604 24.9448 53.8382 24.7994C53.716 24.6535 53.621 24.4838 53.5527 24.2888C53.4848 24.0939 53.4508 23.8877 53.4508 23.6693C53.4508 23.451 53.4848 23.2443 53.5527 23.0499C53.6206 22.8554 53.7147 22.6861 53.8352 22.543C53.9558 22.3995 54.1004 22.2864 54.2693 22.2027C54.4382 22.119 54.6236 22.0774 54.8256 22.0774C55.0275 22.0774 55.2142 22.1204 55.3848 22.2059C55.5558 22.2915 55.7022 22.407 55.8248 22.5529C55.9474 22.6983 56.0425 22.8684 56.1104 23.0634C56.1783 23.2584 56.2122 23.4646 56.2122 23.6829L56.2126 23.682ZM56.9641 23.6689C56.9641 23.3523 56.9119 23.0527 56.8067 22.7703C56.7019 22.4879 56.5559 22.2419 56.3696 22.032C56.1834 21.8226 55.9597 21.6566 55.6996 21.5346C55.4395 21.4125 55.1519 21.3518 54.8375 21.3518C54.523 21.3518 54.2354 21.4139 53.9753 21.5378C53.7152 21.6622 53.4899 21.83 53.2994 22.0418C53.1088 22.2536 52.9612 22.501 52.8564 22.7834C52.7516 23.0657 52.699 23.3654 52.699 23.6824C52.699 23.9994 52.7516 24.2986 52.8564 24.581C52.9612 24.8634 53.1071 25.1093 53.2934 25.3193C53.4801 25.5287 53.7033 25.6947 53.9634 25.8167C54.2235 25.9388 54.5112 25.9995 54.8256 25.9995C55.14 25.9995 55.4277 25.9374 55.6878 25.8135C55.9479 25.6891 56.1732 25.5212 56.3637 25.3095C56.5538 25.0977 56.7014 24.8503 56.8067 24.5679C56.9115 24.2855 56.9641 23.9859 56.9641 23.6689ZM48.6579 24.1313L50.2774 21.4284H49.456L48.3023 23.4187L47.1605 21.4284H46.3157L47.9357 24.1504V25.9224H48.6583V24.1313H48.6579ZM41.2801 2.22348H36V15.2126H41.4481C42.0964 15.2126 42.6917 15.1354 43.2306 14.9807C43.7665 14.8259 44.2269 14.5973 44.6087 14.2971C44.9906 13.9942 45.2825 13.6197 45.49 13.1746C45.6975 12.729 45.8015 12.2189 45.8015 11.6373C45.8015 11.1922 45.7454 10.799 45.633 10.4619C45.5235 10.1216 45.3636 9.82794 45.1557 9.58062C44.9507 9.33329 44.7038 9.1201 44.4203 8.94056C44.1339 8.7643 43.8195 8.60674 43.4746 8.47069C43.685 8.34679 43.8955 8.19858 44.1004 8.02232C44.3054 7.84933 44.4848 7.64829 44.6363 7.4192C44.7852 7.19011 44.9087 6.92127 45.0012 6.61223C45.0967 6.29992 45.1442 5.9474 45.1442 5.5514C45.1442 4.52142 44.7963 3.71118 44.103 3.11741C43.4067 2.52036 42.4664 2.22348 41.2792 2.22348H41.2801Z" fill="#21252B"/>
<defs>
<linearGradient id="paint0_linear_217_3103" x1="9.24082" y1="6.14351" x2="20.0442" y2="23.9775" gradientUnits="userSpaceOnUse">
<stop stop-color="#007F7E"/>
<stop offset="1" stop-color="#CCFF66"/>
</linearGradient>
</defs>
</svg>
